<?xml version="1.0" encoding="utf-8"?>
<!-- Generator: Adobe Illustrator 19.0.1, SVG Export Plug-In . SVG Version: 6.00 Build 0)  -->
<svg version="1.1" id="Layer_1" xmlns="http://www.w3.org/2000/svg" xmlns:xlink="http://www.w3.org/1999/xlink" x="0px" y="0px"
	 viewBox="0 0 30 30" style="enable-background:new 0 0 30 30;" xml:space="preserve">
<style type="text/css">
	.st0{fill:#7CBFBF;}
	.st1{fill:#FFFFFF;}
	.st2{fill:#5B5B5B;}
	.st3{fill:#1BA8A8;}
	.st4{fill:#58A3A5;}
</style>
<g id="Ministry">
	<g>
		<path class="st3" d="M15,26c-6.1,0-11-5-11-11s5-11,11-11s11,5,11,11S21.1,26,15,26z M15,5.2c-5.4,0-9.8,4.4-9.8,9.8
			s4.4,9.8,9.8,9.8c5.4,0,9.8-4.4,9.8-9.8S20.4,5.2,15,5.2z"/>
		<path class="st3" d="M15.1,22.1c-0.8,0-1.4-0.6-1.4-1.4V14c0-0.8,0.6-1.4,1.4-1.4s1.4,0.6,1.4,1.4v6.8
			C16.4,21.5,15.8,22.1,15.1,22.1z"/>
		<path class="st3" d="M15.1,11.4L15.1,11.4c-0.8,0-1.4-0.6-1.4-1.4v0c0-0.8,0.6-1.4,1.4-1.4h0c0.8,0,1.4,0.6,1.4,1.4v0
			C16.5,10.7,15.9,11.4,15.1,11.4z"/>
	</g>
</g>
</svg>
