<?xml version="1.0" encoding="utf-8"?>
<!-- Generator: Adobe Illustrator 19.0.1, SVG Export Plug-In . SVG Version: 6.00 Build 0)  -->
<svg version="1.1" id="Layer_1" xmlns="http://www.w3.org/2000/svg" xmlns:xlink="http://www.w3.org/1999/xlink" x="0px" y="0px"
	 viewBox="0 0 20 20" style="enable-background:new 0 0 20 20;" xml:space="preserve">
<style type="text/css">
	.st0{fill:#1C8481;}
	.st1{fill:#FFFFFF;}
	.st2{fill:#5B5B5B;}
	.st3{fill:#1BA8A8;}
	.st4{fill:#16848C;}
	.st5{fill:#58A3A5;}
	.st6{fill:#C4C4C4;}
</style>
<g id="Ministry">
	<g>
		<g>
			<path class="st6" d="M4.3,10.5l-1.3,0c-0.2,0-0.4,0.2-0.4,0.4c0,0.2,0.2,0.4,0.4,0.4l1.4,0c0.1,0,0.2-0.1,0.3-0.2l0.6-0.6
				c0.1,1,0.5,1.9,1,2.6l-1,1c-0.2,0.2-0.2,0.5,0,0.6c0.2,0.2,0.5,0.2,0.6,0l1-1c0.5,0.5,1.2,0.9,1.9,1.1l-0.2,0.2
				c-0.1,0.1-0.1,0.2-0.1,0.3l0,1.5c0,0.2,0.2,0.4,0.4,0.4c0.1,0,0.2,0,0.3-0.1c0.1-0.1,0.1-0.2,0.1-0.3v-1.3l0.5-0.5
				c1.3,0.1,2.8-0.3,3.8-1.2L7.2,7.6L4.3,10.5z"/>
			<path class="st6" d="M14.2,5.3l-1.1,1.1c-0.8-0.5-1.7-0.8-2.7-0.9l0.7-0.7c0.1-0.1,0.2-0.1,0.2-0.3l0-1.4c0-0.2-0.2-0.4-0.4-0.4
				c-0.2,0-0.4,0.2-0.4,0.4l0,1.3L7.6,7.2l6.4,6.4c0.9-1,1.2-2.5,1.2-3.7l0.5-0.5l1.3,0c0.1,0,0.2,0,0.3-0.1
				c0.1-0.1,0.1-0.2,0.1-0.3c0-0.2-0.2-0.4-0.4-0.4l-1.5,0c-0.1,0-0.2,0-0.3,0.1l-0.2,0.2c-0.2-0.7-0.6-1.3-1.1-1.9l1-1
				c0.2-0.2,0.2-0.5,0-0.6S14.4,5.1,14.2,5.3z"/>
			<path class="st6" d="M5,9L8.9,5C8.2,4.3,7.3,4.1,6.4,4.3l0-0.8c0-0.2-0.2-0.4-0.4-0.4c-0.2,0-0.4,0.2-0.4,0.4l0,1.1
				C5.4,4.8,5.2,4.9,5,5.1C4.9,5.2,4.8,5.4,4.7,5.5l-1.1,0C3.3,5.5,3.1,5.7,3.1,6c0,0.2,0.2,0.4,0.4,0.4l0.8,0C4.1,7.3,4.3,8.2,5,9z
				"/>
		</g>
	</g>
</g>
</svg>
