<?xml version="1.0" encoding="utf-8"?>
<!-- Generator: Adobe Illustrator 19.0.1, SVG Export Plug-In . SVG Version: 6.00 Build 0)  -->
<svg version="1.1" id="Layer_1" xmlns="http://www.w3.org/2000/svg" xmlns:xlink="http://www.w3.org/1999/xlink" x="0px" y="0px"
	 viewBox="0 0 30 30" style="enable-background:new 0 0 30 30;" xml:space="preserve">
<style type="text/css">
	.st0{fill:#7CBFBF;}
	.st1{fill:#FFFFFF;}
	.st2{fill:#5B5B5B;}
	.st3{fill:#1BA8A8;}
	.st4{fill:none;stroke:#5B5B5B;stroke-linecap:round;stroke-linejoin:round;stroke-miterlimit:10;}
	.st5{fill:#58A3A5;}
</style>
<g id="Ministry">
	<path class="st3" d="M12.9,26.2c-0.1,0-0.1,0-0.2,0c-0.2-0.1-0.3-0.3-0.3-0.5V13.1L4.2,4.7C4,4.5,4,4.3,4.1,4.1
		C4.1,4,4.3,3.8,4.5,3.8h21c0.2,0,0.4,0.1,0.5,0.3c0.1,0.2,0,0.4-0.1,0.5l-9.3,8.6v9.2c0,0.1-0.1,0.3-0.1,0.4L13.2,26
		C13.1,26.1,13,26.2,12.9,26.2z M5.7,4.8l7.5,7.7c0.1,0.1,0.1,0.2,0.1,0.3v11.5l2.2-2.2v-9.2c0-0.1,0.1-0.3,0.2-0.4l8.5-7.9H5.7z"/>
</g>
</svg>
