<?xml version="1.0" encoding="utf-8"?>
<!-- Generator: Adobe Illustrator 19.0.1, SVG Export Plug-In . SVG Version: 6.00 Build 0)  -->
<svg version="1.1" id="Layer_1" xmlns="http://www.w3.org/2000/svg" xmlns:xlink="http://www.w3.org/1999/xlink" x="0px" y="0px"
	 viewBox="0 0 30 30" style="enable-background:new 0 0 30 30;" xml:space="preserve">
<style type="text/css">
	.st0{fill:#7CBFBF;}
	.st1{fill:#FFFFFF;}
	.st2{fill:#5B5B5B;}
	.st3{fill:#1BA8A8;}
	.st4{fill:#58A3A5;}
</style>
<g id="Ministry">
	<rect x="4.8" y="5.9" class="st3" width="4.5" height="4.5"/>
	<path class="st3" d="M7,17.4L7,17.4c-1.2,0-2.2-1-2.2-2.2v0c0-1.2,1-2.2,2.2-2.2h0c1.2,0,2.2,1,2.2,2.2v0C9.3,16.4,8.3,17.4,7,17.4
		z"/>
	<polygon class="st3" points="4.6,24.1 7.2,19.5 9.9,24.1 	"/>
	<path class="st3" d="M25.4,8.7H12.9c-0.3,0-0.6-0.3-0.6-0.6s0.3-0.6,0.6-0.6h12.5c0.3,0,0.6,0.3,0.6,0.6S25.8,8.7,25.4,8.7z"/>
	<path class="st3" d="M25.4,15.7H12.9c-0.3,0-0.6-0.3-0.6-0.6s0.3-0.6,0.6-0.6h12.5c0.3,0,0.6,0.3,0.6,0.6S25.8,15.7,25.4,15.7z"/>
	<path class="st3" d="M25.4,22.4H12.9c-0.3,0-0.6-0.3-0.6-0.6s0.3-0.6,0.6-0.6h12.5c0.3,0,0.6,0.3,0.6,0.6S25.8,22.4,25.4,22.4z"/>
</g>
</svg>
