<?xml version="1.0" encoding="utf-8"?>
<!-- Generator: Adobe Illustrator 19.0.1, SVG Export Plug-In . SVG Version: 6.00 Build 0)  -->
<svg version="1.1" id="Layer_1" xmlns="http://www.w3.org/2000/svg" xmlns:xlink="http://www.w3.org/1999/xlink" x="0px" y="0px"
	 viewBox="0 0 30 30" style="enable-background:new 0 0 30 30;" xml:space="preserve">
<style type="text/css">
	.st0{fill:#FFFFFF;}
	.st1{fill:#5B5B5B;}
</style>
<g id="Ministry">
	<g>
		<path class="st1" d="M13.7,21.6c-4.7,0-8.6-3.9-8.6-8.6s3.9-8.6,8.6-8.6s8.6,3.9,8.6,8.6S18.4,21.6,13.7,21.6z M13.7,5.6
			C9.6,5.6,6.3,9,6.3,13s3.3,7.4,7.4,7.4s7.4-3.3,7.4-7.4S17.7,5.6,13.7,5.6z"/>
		<path class="st1" d="M24.3,25.6c-0.2,0-0.3-0.1-0.4-0.2l-5.7-5.7c-0.2-0.2-0.2-0.6,0-0.8s0.6-0.2,0.8,0l5.7,5.7
			c0.2,0.2,0.2,0.6,0,0.8C24.7,25.5,24.5,25.6,24.3,25.6z"/>
	</g>
</g>
</svg>
