<?xml version="1.0" encoding="utf-8"?>
<!-- Generator: Adobe Illustrator 19.0.1, SVG Export Plug-In . SVG Version: 6.00 Build 0)  -->
<svg version="1.1" id="Layer_1" xmlns="http://www.w3.org/2000/svg" xmlns:xlink="http://www.w3.org/1999/xlink" x="0px" y="0px"
	 viewBox="0 0 30 30" style="enable-background:new 0 0 30 30;" xml:space="preserve">
<style type="text/css">
	.st0{fill:#FFFFFF;}
	.st1{fill:#5B5B5B;}
</style>
<g id="Ministry">
	<g>
		<path class="st1" d="M22.2,22.8c-0.1,0-0.2,0-0.3-0.1L7.6,15.5c-0.2-0.1-0.3-0.3-0.3-0.5s0.1-0.4,0.3-0.5l14.3-7.2
			c0.3-0.1,0.7,0,0.8,0.3c0.1,0.3,0,0.7-0.3,0.8L9.2,15l13.3,6.6c0.3,0.1,0.4,0.5,0.3,0.8C22.6,22.6,22.4,22.8,22.2,22.8z"/>
		<path class="st1" d="M22.2,11L22.2,11C20.4,11,19,9.6,19,7.8v0c0-1.8,1.4-3.2,3.2-3.2h0c1.8,0,3.2,1.4,3.2,3.2v0
			C25.3,9.6,23.9,11,22.2,11z"/>
		<path class="st1" d="M22.2,25.3L22.2,25.3c-1.8,0-3.2-1.4-3.2-3.2v0c0-1.8,1.4-3.2,3.2-3.2h0c1.8,0,3.2,1.4,3.2,3.2v0
			C25.3,23.9,23.9,25.3,22.2,25.3z"/>
		<path class="st1" d="M7.8,18.2L7.8,18.2c-1.8,0-3.2-1.4-3.2-3.2v0c0-1.8,1.4-3.2,3.2-3.2h0c1.8,0,3.2,1.4,3.2,3.2v0
			C11,16.8,9.6,18.2,7.8,18.2z"/>
	</g>
</g>
</svg>
