<?xml version="1.0" encoding="utf-8"?>
<!-- Generator: Adobe Illustrator 19.0.1, SVG Export Plug-In . SVG Version: 6.00 Build 0)  -->
<svg version="1.1" id="Layer_1" xmlns="http://www.w3.org/2000/svg" xmlns:xlink="http://www.w3.org/1999/xlink" x="0px" y="0px"
	 viewBox="0 0 30 30" style="enable-background:new 0 0 30 30;" xml:space="preserve">
<style type="text/css">
	.st0{fill:#7CBFBF;}
	.st1{fill:#FFFFFF;}
	.st2{fill:#5B5B5B;}
	.st3{fill:#1BA8A8;}
	.st4{fill:#58A3A5;}
</style>
<g id="Ministry">
	<g>
		<path class="st3" d="M13.7,21.6c-4.7,0-8.5-3.8-8.5-8.5c0-4.7,3.8-8.5,8.5-8.5c4.7,0,8.5,3.8,8.5,8.5
			C22.2,17.7,18.4,21.6,13.7,21.6z M13.7,5.5c-4.2,0-7.5,3.4-7.5,7.5c0,4.2,3.4,7.5,7.5,7.5c4.2,0,7.5-3.4,7.5-7.5
			C21.2,8.9,17.8,5.5,13.7,5.5z"/>
		<path class="st3" d="M24.4,25.5c-0.1,0-0.3,0-0.4-0.1l-5.7-5.7c-0.2-0.2-0.2-0.5,0-0.7s0.5-0.2,0.7,0l5.7,5.7
			c0.2,0.2,0.2,0.5,0,0.7C24.6,25.5,24.5,25.5,24.4,25.5z"/>
		<path class="st3" d="M18.1,13.4h-9c-0.3,0-0.5-0.2-0.5-0.5s0.2-0.5,0.5-0.5h9c0.3,0,0.5,0.2,0.5,0.5S18.4,13.4,18.1,13.4z"/>
	</g>
</g>
</svg>
